<svg width="39" height="39" viewBox="0 0 39 39" fill="none" xmlns="http://www.w3.org/2000/svg">
<path d="M19.5 3.31494C10.5625 3.31494 3.25 10.6112 3.25 19.5975C3.25 27.7225 9.1975 34.4662 16.965 35.685V24.31H12.8375V19.5975H16.965V16.0062C16.965 11.9274 19.3862 9.68494 23.1075 9.68494C24.8787 9.68494 26.7312 9.99369 26.7312 9.99369V14.0074H24.6837C22.6687 14.0074 22.035 15.2587 22.035 16.5425V19.5975H26.5525L25.8212 24.31H22.035V35.685C25.8641 35.0801 29.3511 33.1264 31.8661 30.1762C34.3811 27.2262 35.7588 23.4741 35.75 19.5975C35.75 10.6112 28.4375 3.31494 19.5 3.31494Z" fill="#2C2C2C"/>
</svg>
