<svg width="350" height="54" viewBox="0 0 350 54" fill="none" xmlns="http://www.w3.org/2000/svg">
<path d="M7.93216 0.00618735C8.13356 0.00658921 8.33497 0.00598411 8.53637 0.00551353C8.88864 0.00482761 9.2409 0.00477635 9.59317 0.00515151C10.117 0.00570789 10.6409 0.00527555 11.1647 0.00465604C12.1006 0.00358338 13.0365 0.00349996 13.9723 0.00384923C14.7915 0.00415429 15.6106 0.00415613 16.4297 0.00385513C16.5397 0.00381587 16.6497 0.00377663 16.7597 0.00373741C16.9255 0.00367782 17.0913 0.00361788 17.257 0.00355705C18.7976 0.00299798 20.3382 0.00277523 21.8788 0.00327844C21.9223 0.00329257 21.9223 0.00329257 21.9667 0.00330698C22.2902 0.00341232 22.6137 0.00352305 22.9372 0.00363595C22.9664 0.00364614 22.9956 0.00365633 23.0256 0.00366683C23.1437 0.00370808 23.2618 0.00374934 23.3799 0.00379093C25.2475 0.00444772 27.115 0.00410364 28.9826 0.00287613C29.4532 0.00256742 29.9238 0.00226139 30.3944 0.00197212C30.4233 0.00195428 30.4523 0.00193643 30.4822 0.00191804C32.0488 0.000959521 33.6154 0.00098357 35.182 0.00131644C35.4025 0.00136111 35.623 0.00140364 35.8434 0.00144499C35.8977 0.00145571 35.952 0.00146643 36.0079 0.00147748C36.8263 0.0016255 37.6446 0.00122548 38.4629 0.000550057C39.3939 -0.000216621 40.3249 -0.000219591 41.2559 0.000780635C41.7763 0.00131793 42.2968 0.00126794 42.8173 0.000354914C43.1657 -0.000195826 43.514 4.63884e-05 43.8623 0.00091437C44.0603 0.00138624 44.2583 0.00153431 44.4564 0.000712932C46.1545 -0.00583148 47.8073 0.270223 49.2092 1.32116C49.2518 1.35215 49.2944 1.38314 49.3383 1.41507C49.6233 1.62595 49.8893 1.85063 50.1452 2.0967C50.1653 2.11596 50.1855 2.13523 50.2063 2.15508C50.5335 2.46932 50.8211 2.80016 51.0811 3.17384C51.1093 3.21421 51.1093 3.21421 51.1381 3.2554C51.5703 3.88236 51.9038 4.55554 52.1394 5.28233C52.1561 5.33296 52.1561 5.33296 52.1731 5.38461C52.2109 5.50851 52.2417 5.63302 52.2723 5.75896C52.2827 5.8008 52.2827 5.8008 52.2933 5.84349C52.4796 6.6245 52.4669 7.4079 52.4646 8.20552C52.4642 8.40887 52.4648 8.61223 52.4653 8.81558C52.466 9.17119 52.466 9.52679 52.4656 9.8824C52.4651 10.4112 52.4655 10.94 52.4661 11.4689C52.4672 12.4136 52.4673 13.3583 52.4669 14.3031C52.4666 15.1299 52.4666 15.9567 52.4669 16.7836C52.467 16.8946 52.467 17.0057 52.467 17.1167C52.4671 17.284 52.4672 17.4514 52.4672 17.6187C52.4678 19.1739 52.468 20.729 52.4675 22.2842C52.4675 22.3134 52.4675 22.3427 52.4675 22.3729C52.4674 22.6994 52.4672 23.0259 52.4671 23.3524C52.4671 23.3819 52.4671 23.4113 52.4671 23.4417C52.4671 23.5609 52.467 23.6801 52.467 23.7993C52.4663 25.6845 52.4667 27.5697 52.4679 29.4549C52.4682 29.93 52.4685 30.405 52.4688 30.8801C52.4688 30.9094 52.4688 30.9386 52.4688 30.9688C52.4698 32.5502 52.4697 34.1316 52.4694 35.7131C52.4694 35.9356 52.4693 36.1582 52.4693 36.3807C52.4693 36.4355 52.4693 36.4903 52.4693 36.5467C52.4691 37.3728 52.4695 38.1989 52.4702 39.025C52.4709 39.9647 52.4709 40.9045 52.47 41.8442C52.4694 42.3696 52.4695 42.895 52.4704 43.4204C52.4709 43.772 52.4707 44.1236 52.4698 44.4751C52.4694 44.675 52.4692 44.8749 52.47 45.0748C52.4787 47.3862 51.8143 49.3402 50.193 51.0068C48.6729 52.5361 46.7145 53.1439 44.6152 53.1382C44.5396 53.1379 44.464 53.1376 44.3884 53.1373C44.1866 53.1367 43.9847 53.1374 43.7829 53.1379C43.4301 53.1386 43.0774 53.1385 42.7246 53.1379C42.2 53.137 41.6754 53.1373 41.1508 53.1379C40.2137 53.1388 39.2765 53.1386 38.3394 53.1378C37.5193 53.1371 36.6993 53.1369 35.8793 53.1371C35.8248 53.1371 35.7704 53.1371 35.7142 53.1371C35.4931 53.1371 35.272 53.1372 35.0508 53.1372C34.4328 53.1373 33.8147 53.1374 33.1967 53.1374C33.1544 53.1374 33.1544 53.1374 33.1114 53.1374C32.2155 53.1374 31.3196 53.1371 30.4237 53.1365C30.3802 53.1365 30.3802 53.1365 30.3358 53.1365C29.8643 53.1362 29.3929 53.1359 28.9215 53.1356C27.0516 53.1343 25.1817 53.1341 23.3118 53.1347C23.1936 53.1348 23.0754 53.1348 22.9573 53.1349C22.9134 53.1349 22.9134 53.1349 22.8687 53.1349C22.545 53.135 22.2213 53.1351 21.8977 53.1352C21.8686 53.1352 21.8396 53.1352 21.8097 53.1352C20.2412 53.1358 18.6727 53.1355 17.1041 53.1349C16.9385 53.1348 16.7728 53.1348 16.6072 53.1347C16.4973 53.1347 16.3874 53.1346 16.2775 53.1346C15.458 53.1343 14.6385 53.1344 13.819 53.1347C12.887 53.1351 11.9551 53.1348 11.0232 53.1337C10.502 53.1331 9.98079 53.1329 9.45959 53.1335C9.11106 53.1338 8.76255 53.1335 8.41403 53.1327C8.21572 53.1322 8.01742 53.1321 7.81911 53.1326C7.05134 53.1347 6.30845 53.1365 5.55995 52.9376C5.51307 52.9252 5.46618 52.9129 5.41787 52.9002C5.31458 52.8715 5.21425 52.8389 5.11325 52.8029C5.07706 52.7903 5.04088 52.7776 5.0036 52.7646C3.08336 52.0703 1.55653 50.6355 0.675467 48.7798C0.113932 47.5541 -0.00311824 46.332 0.00201575 44.9988C0.00256185 44.7948 0.00185988 44.5907 0.00132635 44.3867C0.000562476 44.0301 0.000578157 43.6735 0.00112316 43.3169C0.0019314 42.7865 0.00151449 42.2562 0.000866093 41.7259C-0.000251382 40.7785 -0.000157657 39.8311 0.000457774 38.8836C0.000993689 38.0545 0.00113222 37.2254 0.000878427 36.3962C0.000862179 36.3411 0.000845832 36.2861 0.000829091 36.2293C0.000762861 36.0057 0.000695453 35.7821 0.000625256 35.5585C0.00014147 33.9988 5.46616e-05 32.4391 0.000851163 30.8793C0.000866106 30.85 0.000881208 30.8206 0.000896604 30.7904C0.00114012 30.3136 0.00139926 29.8369 0.00166001 29.3602C0.00269294 27.4697 0.00264536 25.5792 0.00161133 23.6887C0.00135153 23.2122 0.00109367 22.7357 0.000851163 22.2592C0.000836177 22.2298 0.000821161 22.2005 0.000805722 22.1702C1.2995e-06 20.5841 0.00017992 18.998 0.000677838 17.4119C0.000746056 17.1887 0.000812586 16.9655 0.000878427 16.7423C0.000895248 16.6873 0.000911731 16.6324 0.000929061 16.5757C0.00117063 15.7473 0.000888799 14.9189 0.000350663 14.0904C-0.000258423 13.1481 -0.000103647 12.2058 0.00104851 11.2634C0.00167148 10.7366 0.0017167 10.2097 0.000911534 9.68286C0.000432379 9.33034 0.000734995 8.97782 0.00165677 8.6253C0.00215968 8.42486 0.00234235 8.22442 0.00157043 8.02398C-0.00668114 5.7111 0.65628 3.7565 2.27881 2.08862C3.07581 1.28685 4.04348 0.712396 5.10261 0.340965C5.15109 0.323532 5.15109 0.323532 5.20055 0.305747C6.1002 0.00522096 6.9971 0.0034272 7.93216 0.00618735Z" fill="#027F84"/>
<path d="M7.64045 0.00600755C7.79264 0.00645411 7.94482 0.00603631 8.097 0.00576865C8.35309 0.00545728 8.60916 0.00586179 8.86525 0.00668906C9.12431 0.00751658 9.38335 0.00752461 9.64241 0.00668906C12.4534 -0.00214439 12.4534 -0.00214439 13.8133 0.201499C13.8456 0.206306 13.8778 0.211113 13.911 0.216065C15.3868 0.437542 16.8624 0.767831 18.2378 1.36481C18.2759 1.38104 18.3141 1.39728 18.3533 1.414C19.3025 1.81836 20.2174 2.2718 21.0882 2.82971C21.1132 2.84569 21.1381 2.86166 21.1638 2.87812C22.1057 3.48643 22.9802 4.21208 23.7679 5.01294C23.8403 5.08638 23.9132 5.15923 23.9862 5.23207C24.3117 5.5599 24.5972 5.90648 24.8745 6.27655C24.9433 6.36483 25.0126 6.4526 25.0819 6.54045C26.04 7.78765 26.8075 9.25026 27.2842 10.7522C27.3213 10.8688 27.3616 10.9832 27.4053 11.0974C27.6367 11.7144 27.7659 12.373 27.8768 13.0214C27.894 13.1211 27.9123 13.2205 27.9308 13.3198C28.0974 14.2362 28.1241 15.1623 28.1211 16.092C28.121 16.1431 28.1209 16.1941 28.1208 16.2468C28.1187 16.9815 28.104 17.701 27.9802 18.4267C27.9713 18.4809 27.9624 18.535 27.9532 18.5909C27.3741 22.0867 25.6969 25.2571 23.0452 27.6039C23.0227 27.624 23.0003 27.6441 22.9772 27.6648C22.0026 28.5377 20.924 29.2892 19.7819 29.9194C19.6923 29.9691 19.6035 30.0201 19.5148 30.0715C19.1133 30.3001 18.6937 30.4824 18.2697 30.6629C18.2256 30.6818 18.2256 30.6818 18.1805 30.701C18.0958 30.7371 18.011 30.7728 17.926 30.8083C17.8765 30.8291 17.827 30.8499 17.7759 30.8713C17.6595 30.915 17.5518 30.9446 17.4295 30.9645C17.7879 31.6032 18.1484 32.2404 18.5188 32.8721C18.685 33.1556 18.8496 33.4401 19.0142 33.7247C19.045 33.7779 19.0758 33.8312 19.1066 33.8844C19.1688 33.992 19.2311 34.0996 19.2933 34.2072C19.4298 34.4433 19.5664 34.6793 19.7031 34.9152C19.7783 35.0453 19.8536 35.1753 19.9289 35.3054C19.959 35.3575 19.9892 35.4095 20.0193 35.4616C22.2568 39.3272 22.2568 39.3272 28.1557 49.5182C28.1706 49.544 28.1855 49.5698 28.2009 49.5963C28.231 49.6484 28.2611 49.7004 28.2913 49.7525C28.3666 49.8826 28.4419 50.0127 28.5172 50.1428C28.6533 50.3778 28.7893 50.6129 28.9252 50.848C28.986 50.9531 29.0467 51.0583 29.1075 51.1634C29.1375 51.2153 29.1675 51.2671 29.1975 51.319C29.3666 51.6117 29.5367 51.9039 29.7085 52.1951C29.7405 52.2494 29.7725 52.3037 29.8045 52.358C29.8652 52.461 29.9261 52.5639 29.9872 52.6667C30.0142 52.7124 30.0411 52.7582 30.0689 52.8053C30.0929 52.8457 30.1168 52.886 30.1414 52.9276C30.1924 53.0243 30.1924 53.0243 30.1924 53.1105C27.9418 53.1134 25.6912 53.1162 23.4406 53.1178C23.3906 53.1178 23.3906 53.1178 23.3396 53.1178C22.6149 53.1184 21.8901 53.1188 21.1654 53.1193C20.81 53.1195 20.4545 53.1197 20.0991 53.1199C20.0637 53.12 20.0283 53.12 19.9919 53.12C18.8468 53.1207 17.7016 53.122 16.5565 53.1236C15.3791 53.1253 14.2017 53.1263 13.0243 53.1267C12.8578 53.1267 12.6912 53.1268 12.5247 53.1268C12.4755 53.1268 12.4755 53.1268 12.4254 53.1269C11.8991 53.1271 11.3728 53.1279 10.8466 53.1289C10.3167 53.1299 9.78685 53.1303 9.25698 53.13C8.97021 53.1299 8.68344 53.1301 8.39667 53.131C8.13361 53.1319 7.87056 53.1319 7.60749 53.1313C7.51283 53.1312 7.41817 53.1315 7.3235 53.132C6.56773 53.1361 5.8307 53.0594 5.11325 52.8035C5.07706 52.7908 5.04088 52.7782 5.0036 52.7652C3.08336 52.0709 1.55653 50.6361 0.675466 48.7804C0.113931 47.5547 -0.00311824 46.3325 0.00201575 44.9994C0.00256185 44.7954 0.00185923 44.5913 0.0013257 44.3873C0.000561827 44.0307 0.000578157 43.674 0.00112316 43.3174C0.0019314 42.7871 0.00151449 42.2568 0.000866093 41.7265C-0.000251382 40.779 -0.000158305 39.8316 0.000457124 38.8842C0.00099304 38.0551 0.00113157 37.2259 0.000877778 36.3968C0.00086153 36.3417 0.000845832 36.2866 0.000829091 36.2299C0.000762861 36.0063 0.000694803 35.7827 0.000624607 35.559C0.000140821 33.9993 5.4662e-05 32.4396 0.000851163 30.8799C0.000866106 30.8505 0.000880558 30.8212 0.000895954 30.7909C0.00113947 30.3142 0.00139926 29.8375 0.00166001 29.3607C0.00269294 27.4702 0.00264471 25.5797 0.00161068 23.6892C0.00135089 23.2127 0.00109367 22.7362 0.000851163 22.2597C0.000836177 22.2304 0.000821161 22.201 0.000805722 22.1708C1.29911e-06 20.5847 0.000179271 18.9986 0.000677189 17.4124C0.000745406 17.1892 0.000811937 16.966 0.000877778 16.7428C0.000894599 16.6879 0.000911731 16.6329 0.000929061 16.5763C0.00117063 15.7479 0.000888799 14.9194 0.000350663 14.091C-0.000258423 13.1487 -0.000103647 12.2063 0.00104851 11.264C0.00167148 10.7371 0.00171605 10.2103 0.000910885 9.68343C0.00043173 9.3309 0.000734995 8.97839 0.00165677 8.62586C0.00215968 8.42542 0.00234235 8.22499 0.00157043 8.02454C-0.00668113 5.71167 0.65628 3.75706 2.27881 2.08918C3.07581 1.28741 4.04348 0.712958 5.10261 0.341527C5.15109 0.324095 5.15109 0.324095 5.20055 0.30631C6.00181 0.0386495 6.80324 0.00276276 7.64045 0.00600755Z" fill="white"/>
<path d="M0.156846 5.88862C1.58219 5.88565 3.00754 5.88338 4.43289 5.88202C4.60187 5.88186 4.77085 5.88169 4.93983 5.88152C4.99029 5.88147 4.99029 5.88147 5.04176 5.88141C5.58355 5.88086 6.12533 5.87984 6.66711 5.87865C7.22469 5.87743 7.78226 5.87672 8.33983 5.87646C8.68278 5.87628 9.02572 5.87573 9.36867 5.87467C9.60511 5.87398 9.84156 5.87378 10.078 5.87395C10.2136 5.87403 10.3492 5.87385 10.4848 5.87321C13.3876 5.86029 16.3067 6.615 18.4838 8.64474C18.5677 8.72271 18.6534 8.79768 18.7402 8.87229C19.1906 9.2723 19.5852 9.70835 19.9394 10.1972C19.9651 10.2325 19.9651 10.2325 19.9912 10.2685C21.0634 11.7587 21.7309 13.6287 21.7334 15.4814C21.7335 15.5197 21.7336 15.5581 21.7338 15.5976C21.734 15.6785 21.7341 15.7593 21.7341 15.8402C21.7342 15.9606 21.735 16.081 21.7358 16.2014C21.7382 16.9628 21.6938 17.7086 21.5055 18.448C21.4924 18.5009 21.4793 18.5538 21.4658 18.6083C20.9004 20.8407 19.6511 22.9334 17.8019 24.3161C17.7246 24.3742 17.6483 24.4335 17.5721 24.493C17.2029 24.778 16.8202 25.0176 16.4083 25.234C16.3817 25.2482 16.3552 25.2625 16.3278 25.2772C15.5835 25.6718 14.7571 25.9548 13.9382 26.1388C13.886 26.1506 13.886 26.1506 13.8329 26.1627C13.0493 26.3238 12.2544 26.3236 11.4586 26.3211C11.3047 26.3208 11.1508 26.3209 10.9968 26.321C10.7312 26.321 10.4655 26.3207 10.1999 26.3202C9.81583 26.3195 9.43176 26.3193 9.04769 26.3192C8.42432 26.319 7.80095 26.3185 7.17759 26.3176C6.57262 26.3168 5.96765 26.3162 5.36269 26.3159C5.3066 26.3158 5.3066 26.3158 5.24938 26.3158C5.06177 26.3157 4.87416 26.3156 4.68655 26.3155C3.13411 26.3146 1.58166 26.3131 0.0292165 26.3111C0.0262937 23.8152 0.0240452 21.3193 0.022699 18.8233C0.0225398 18.5285 0.0223744 18.2337 0.0222056 17.9389C0.0221889 17.9095 0.0221722 17.8802 0.022155 17.85C0.0216117 16.9001 0.0206535 15.9502 0.0194787 15.0003C0.0182388 13.996 0.0174747 12.9916 0.017208 11.9873C0.0170331 11.386 0.0164811 10.7847 0.0154432 10.1834C0.0147673 9.77076 0.0145649 9.35815 0.0147304 8.94553C0.0148119 8.70765 0.014689 8.46978 0.0140023 8.23191C0.0133771 8.01371 0.0133526 7.79552 0.0137862 7.57732C0.0138397 7.49879 0.0136814 7.42026 0.0132777 7.34173C0.0108657 6.84311 0.0547097 6.37673 0.156846 5.88862Z" fill="#027F84"/>
<path d="M0.0294267 32.2571C1.44505 32.2482 2.86067 32.2414 4.27631 32.2373C4.44341 32.2368 4.61052 32.2363 4.77762 32.2358C4.82752 32.2356 4.82752 32.2356 4.87843 32.2355C5.4172 32.2338 5.95595 32.2307 6.49471 32.2272C7.04747 32.2235 7.60022 32.2214 8.15299 32.2206C8.49413 32.2201 8.83522 32.2184 9.17635 32.2152C9.43787 32.2129 9.69935 32.2127 9.96087 32.2132C10.0682 32.2131 10.1755 32.2123 10.2829 32.2109C10.4293 32.2089 10.5755 32.2094 10.7219 32.2105C10.7645 32.2093 10.8071 32.2082 10.851 32.207C11.1328 32.2126 11.1328 32.2126 11.2577 32.3421C11.3233 32.4405 11.3785 32.5387 11.431 32.6449C11.4561 32.6868 11.4812 32.7287 11.5071 32.7719C11.5279 32.8088 11.5487 32.8458 11.5701 32.8838C11.5943 32.9267 11.6185 32.9695 11.6435 33.0137C11.669 33.059 11.6945 33.1044 11.7208 33.1511C11.7774 33.2512 11.8341 33.3512 11.8908 33.4512C11.9054 33.4769 11.92 33.5027 11.935 33.5292C12.0968 33.8144 12.261 34.0981 12.4254 34.3817C12.4558 34.4341 12.4861 34.4864 12.5164 34.5388C12.5776 34.6443 12.6388 34.7498 12.7 34.8553C12.8542 35.1211 13.0081 35.3869 13.162 35.6528C13.1846 35.6919 13.1846 35.6919 13.2078 35.7319C13.4343 36.1231 13.6602 36.5148 13.8857 36.9066C14.0783 37.2412 14.2714 37.5753 14.4648 37.9094C14.4875 37.9485 14.4875 37.9485 14.5106 37.9884C14.6185 38.1748 14.7265 38.3612 14.8344 38.5476C14.9577 38.7603 15.0809 38.973 15.204 39.1858C15.2267 39.2249 15.2267 39.2249 15.2498 39.2649C15.4763 39.656 15.7021 40.0475 15.9275 40.4392C16.1227 40.7784 16.3187 41.1172 16.5149 41.4558C16.7352 41.8361 16.9551 42.2167 17.1743 42.5976C17.4829 43.1338 17.7928 43.6691 18.1029 44.2044C18.2693 44.4918 18.4356 44.7792 18.602 45.0667C18.6471 45.1446 18.6922 45.2225 18.7373 45.3004C18.7522 45.3261 18.7671 45.3518 18.7824 45.3783C18.8741 45.5367 18.9658 45.695 19.0575 45.8534C19.3762 46.4038 19.6946 46.9544 20.0119 47.5057C20.2045 47.8402 20.3976 48.1744 20.5911 48.5084C20.6062 48.5345 20.6213 48.5605 20.6368 48.5874C20.7447 48.7738 20.8527 48.9602 20.9606 49.1466C21.0839 49.3593 21.2071 49.572 21.3302 49.7848C21.3529 49.8239 21.3529 49.8239 21.376 49.8639C21.5784 50.2134 21.7802 50.5631 21.9817 50.9131C22.1932 51.2805 22.4048 51.6477 22.6169 52.0147C22.6485 52.0694 22.6801 52.1241 22.7117 52.1788C22.9162 52.5338 22.9162 52.5338 23.1302 52.8829C23.2154 53.0243 23.2154 53.0243 23.2154 53.1105C21.0953 53.1144 18.9751 53.1174 16.8549 53.1193C16.6043 53.1195 16.3537 53.1197 16.103 53.1199C16.0282 53.12 16.0282 53.12 15.9518 53.1201C15.1453 53.1208 14.3387 53.1222 13.5321 53.1238C12.7038 53.1254 11.8754 53.1263 11.047 53.1267C10.5364 53.1269 10.0258 53.1276 9.51513 53.1291C9.16437 53.13 8.81362 53.1302 8.46286 53.13C8.26087 53.1299 8.05889 53.1301 7.85691 53.131C6.30313 53.1378 6.30313 53.1378 5.56003 52.9381C5.5132 52.9258 5.46637 52.9135 5.41812 52.9008C5.31475 52.8721 5.21439 52.8395 5.11333 52.8035C5.07715 52.7908 5.04096 52.7782 5.00368 52.7651C3.08344 52.0709 1.55661 50.6361 0.675551 48.7804C0.145416 47.6232 -0.00381243 46.4529 0.00473772 45.1877C0.00567251 45.0134 0.00534435 44.8392 0.00518394 44.665C0.0050734 44.3644 0.00573016 44.0639 0.00693626 43.7634C0.00867882 43.3289 0.0092204 42.8944 0.00948629 42.4598C0.0099497 41.7546 0.0113594 41.0493 0.0133795 40.344C0.0153377 39.6597 0.0168406 38.9753 0.0177419 38.291C0.0177978 38.2487 0.0178536 38.2064 0.0179112 38.1628C0.0181889 37.9504 0.0184577 37.7381 0.0187221 37.5258C0.0209206 35.7696 0.0246612 34.0133 0.0294267 32.2571Z" fill="#027F84"/>
<path d="M36.0059 44.0082C36.1008 44.0797 36.1884 44.1547 36.2758 44.2355C36.3288 44.284 36.3288 44.284 36.3828 44.3335C37.002 44.9287 37.3709 45.7458 37.4021 46.6111C37.4119 47.5632 37.0345 48.4102 36.3901 49.0934C35.7245 49.7453 34.9016 50.0334 33.9883 50.027C33.2032 50.0054 32.4726 49.682 31.8939 49.1473C31.855 49.1139 31.855 49.1139 31.8154 49.0798C31.3246 48.629 30.9126 47.8342 30.8635 47.1679C30.8237 46.0411 30.8237 46.0411 31.043 45.5281C31.0647 45.4771 31.0863 45.426 31.1086 45.3734C31.2568 45.0438 31.442 44.7626 31.6811 44.494C31.7063 44.4646 31.7315 44.4351 31.7574 44.4047C32.8781 43.173 34.6749 43.1339 36.0059 44.0082Z" fill="white"/>
<path d="M35.9737 43.9855C36.0694 44.056 36.1579 44.1299 36.2462 44.2096C36.2998 44.2575 36.2998 44.2575 36.3544 44.3063C36.9807 44.8941 37.3593 45.7067 37.4009 46.5716C37.422 47.5235 37.0547 48.3749 36.4186 49.0658C35.7608 49.7256 34.9414 50.0235 34.0281 50.028C33.2428 50.0158 32.5084 49.7012 31.9233 49.1734C31.8841 49.1404 31.8841 49.1404 31.844 49.1068C31.3479 48.662 30.9264 47.8721 30.8693 47.2065C30.8161 46.0802 30.8161 46.0802 31.0292 45.5646C31.0503 45.5133 31.0713 45.462 31.093 45.4092C31.2372 45.0778 31.4191 44.7944 31.655 44.523C31.6798 44.4932 31.7046 44.4634 31.7302 44.4328C32.836 43.1877 34.6323 43.1272 35.9737 43.9855Z" fill="white"/>
<path d="M60.3553 13.5584C78.3114 13.5584 78.3114 13.5584 80.8186 16.0412C81.0973 16.3245 81.3308 16.6246 81.5418 16.9622C81.5661 17.0006 81.5661 17.0006 81.5908 17.0398C82.3628 18.2861 82.735 19.8357 82.7417 21.2995C82.7419 21.3424 82.7422 21.3854 82.7424 21.4296C82.7428 21.5203 82.7431 21.6109 82.7433 21.7015C82.7437 21.8366 82.745 21.9717 82.7463 22.1068C82.757 24.163 82.1754 26.2324 80.7327 27.7344C80.6905 27.7773 80.6483 27.8201 80.6059 27.8628C80.5662 27.9029 80.5266 27.9431 80.4857 27.9845C79.626 28.8171 78.552 29.3575 77.4577 29.8016C77.482 29.829 77.5063 29.8563 77.5313 29.8844C78.9097 31.4912 79.7873 33.6295 80.691 35.532C80.7038 35.5591 80.7167 35.5861 80.7299 35.614C80.817 35.7975 80.9038 35.9811 80.9902 36.1649C81.158 36.5222 81.3286 36.878 81.4993 37.2339C81.6918 37.6355 81.8839 38.0373 82.0736 38.4403C82.2625 38.8415 82.4536 39.2415 82.6453 39.6413C82.9109 40.1954 83.175 40.7501 83.4377 41.3056C83.5217 41.4832 83.6059 41.6607 83.69 41.8381C83.7323 41.9273 83.7746 42.0165 83.8168 42.1057C83.9292 42.3431 84.0419 42.5804 84.1549 42.8175C84.1904 42.8922 84.1904 42.8922 84.2267 42.9684C84.2725 43.0646 84.3184 43.1608 84.3643 43.257C84.3847 43.2999 84.4051 43.3428 84.4261 43.387C84.4443 43.4251 84.4624 43.4631 84.4811 43.5023C84.5198 43.589 84.5198 43.589 84.5198 43.6321C82.5263 43.6321 80.5327 43.6321 78.4787 43.6321C78.1335 42.883 78.1335 42.883 78.0019 42.5889C77.9865 42.5545 77.9711 42.5201 77.9552 42.4846C77.9054 42.3734 77.8557 42.2622 77.806 42.151C77.7886 42.112 77.7711 42.073 77.7532 42.0329C77.4786 41.4183 77.2091 40.8016 76.9425 40.1835C76.6653 39.5412 76.3815 38.9021 76.0953 38.2638C75.8903 37.8067 75.6877 37.3486 75.4873 36.8895C75.0334 35.8499 74.5564 34.8224 74.0665 33.7998C73.9805 33.6202 73.8951 33.4403 73.8106 33.2599C73.5404 32.6827 73.2602 32.1109 72.9762 31.5405C72.9609 31.5097 72.9456 31.4789 72.9299 31.4472C72.9011 31.3893 72.8723 31.3314 72.8434 31.2736C72.772 31.1298 72.7083 30.9855 72.6503 30.8357C72.616 30.8355 72.5818 30.8353 72.5465 30.8351C71.7132 30.8307 70.8798 30.826 70.0465 30.8211C69.6435 30.8187 69.2406 30.8164 68.8376 30.8143C68.4864 30.8124 68.1352 30.8104 67.784 30.8082C67.598 30.8071 67.412 30.806 67.226 30.8051C67.051 30.8043 66.876 30.8032 66.701 30.8021C66.6367 30.8017 66.5724 30.8013 66.5081 30.8011C66.4204 30.8007 66.3328 30.8001 66.2451 30.7994C66.1714 30.799 66.1714 30.799 66.0963 30.7986C65.971 30.7926 65.971 30.7926 65.8009 30.7495C65.8009 35.0008 65.8009 39.252 65.8009 43.6321C64.0038 43.6321 62.2068 43.6321 60.3553 43.6321C60.3553 33.7078 60.3553 23.7835 60.3553 13.5584ZM65.8009 17.7377C65.8009 20.7093 65.8009 23.6809 65.8009 26.7426C66.9196 26.7443 68.0384 26.7461 69.191 26.748C69.5427 26.7487 69.8944 26.7495 70.2567 26.7503C70.5753 26.7506 70.5753 26.7506 70.8938 26.7508C71.0344 26.7509 71.175 26.7512 71.3155 26.7517C72.4534 26.7557 72.4534 26.7557 73.5863 26.6564C73.6346 26.65 73.6829 26.6436 73.7327 26.637C73.8405 26.6218 73.9472 26.6038 74.0542 26.5837C74.1113 26.573 74.1113 26.573 74.1696 26.562C74.9879 26.398 75.8099 26.1087 76.4367 25.5362C76.4658 25.5107 76.4949 25.4852 76.5249 25.4589C77.3207 24.7163 77.6309 23.5406 77.6757 22.48C77.7097 21.3532 77.6178 20.1681 76.8488 19.278C76.7832 19.2089 76.7167 19.1407 76.6494 19.0734C76.617 19.0401 76.5847 19.0069 76.5513 18.9727C75.9371 18.3751 75.1298 18.0953 74.3122 17.9181C74.2545 17.9055 74.2545 17.9055 74.1958 17.8927C73.2757 17.7078 72.3468 17.7259 71.4136 17.729C71.2352 17.7295 71.0568 17.7295 70.8784 17.7295C70.3594 17.73 69.8403 17.7312 69.3213 17.7323C68.1596 17.7341 66.9978 17.7359 65.8009 17.7377Z" fill="#027F84"/>
<path d="M235.761 13.5584C250.883 13.5584 250.883 13.5584 253.374 14.377C253.413 14.39 253.453 14.403 253.494 14.4164C254.269 14.674 255.037 15.0113 255.671 15.5403C255.694 15.5588 255.717 15.5773 255.74 15.5963C257.214 16.792 257.931 18.6786 258.141 20.5417C258.327 22.4681 258.144 24.554 257.202 26.2686C257.178 26.3144 257.154 26.3602 257.128 26.4073C256.837 26.9354 256.463 27.3837 256.054 27.8197C256.027 27.8492 256.001 27.8787 255.974 27.9091C255.15 28.7998 253.97 29.3714 252.863 29.8016C252.884 29.8248 252.906 29.8479 252.928 29.8718C253.137 30.1043 253.318 30.3437 253.488 30.6068C253.513 30.6459 253.539 30.685 253.565 30.7253C254.564 32.2754 255.368 33.9553 256.149 35.6261C256.299 35.9477 256.453 36.2675 256.607 36.5876C256.818 37.0275 257.028 37.468 257.236 37.9094C257.407 38.2739 257.581 38.6371 257.756 39.0004C257.966 39.4403 258.176 39.8807 258.384 40.3222C258.541 40.6555 258.7 40.9879 258.86 41.3201C258.988 41.5881 259.116 41.8561 259.245 42.1241C259.269 42.1742 259.293 42.2243 259.317 42.276C259.381 42.4093 259.444 42.5427 259.508 42.6761C259.526 42.7135 259.544 42.751 259.562 42.7895C259.694 43.0674 259.808 43.3465 259.925 43.6321C257.932 43.6321 255.938 43.6321 253.884 43.6321C253.437 42.6318 252.991 41.6321 252.552 40.6285C252.412 40.3089 252.271 39.9898 252.129 39.6709C251.95 39.2669 251.772 38.8623 251.595 38.4574C250.632 36.256 250.632 36.256 249.613 34.0805C249.512 33.8702 249.413 33.659 249.313 33.4477C249.134 33.0674 248.954 32.6875 248.773 32.308C248.744 32.2469 248.715 32.1858 248.686 32.1247C248.672 32.0957 248.658 32.0668 248.644 32.037C248.631 32.0083 248.617 31.9796 248.603 31.9501C248.576 31.8931 248.548 31.8363 248.519 31.7798C248.433 31.6087 248.363 31.4397 248.305 31.2567C248.239 31.1129 248.174 30.9843 248.056 30.8788C247.931 30.8368 247.811 30.839 247.68 30.8403C247.642 30.8396 247.603 30.8389 247.563 30.8381C247.429 30.836 247.296 30.8359 247.162 30.8357C247.061 30.8344 246.961 30.8331 246.86 30.8316C246.543 30.8273 246.226 30.8255 245.909 30.824C245.75 30.8232 245.591 30.8222 245.431 30.8212C244.96 30.8182 244.489 30.8156 244.018 30.813C243.65 30.811 243.281 30.8089 242.913 30.8065C242.724 30.8053 242.535 30.8043 242.346 30.8034C242.257 30.803 242.168 30.8024 242.079 30.8018C241.971 30.8011 241.863 30.8006 241.755 30.8002C241.707 30.7999 241.66 30.7995 241.611 30.7991C241.569 30.7989 241.528 30.7987 241.485 30.7985C241.376 30.7926 241.376 30.7926 241.206 30.7495C241.206 35.0008 241.206 39.252 241.206 43.6321C239.409 43.6321 237.612 43.6321 235.761 43.6321C235.761 33.7078 235.761 23.7835 235.761 13.5584ZM241.206 17.7377C241.206 20.7093 241.206 23.6809 241.206 26.7426C242.324 26.7443 243.442 26.7461 244.594 26.748C245.121 26.7491 245.121 26.7491 245.658 26.7503C245.977 26.7506 245.977 26.7506 246.295 26.7508C246.436 26.7509 246.576 26.7512 246.716 26.7517C248.159 26.758 248.159 26.758 249.585 26.5568C249.629 26.5473 249.674 26.5379 249.72 26.5282C250.574 26.3417 251.406 26.0254 252.012 25.3638C252.038 25.336 252.065 25.3082 252.092 25.2795C252.648 24.6727 252.917 23.8911 253.033 23.0803C253.037 23.0532 253.041 23.026 253.045 22.9981C253.208 21.7296 253.092 20.3394 252.302 19.2955C251.366 18.189 249.877 17.8582 248.503 17.7465C248.215 17.7296 247.927 17.7321 247.639 17.7328C247.568 17.7328 247.496 17.7328 247.425 17.7328C247.234 17.7328 247.044 17.733 246.854 17.7333C246.674 17.7336 246.495 17.7336 246.316 17.7336C245.793 17.7339 245.271 17.7345 244.748 17.735C243.579 17.7359 242.41 17.7368 241.206 17.7377Z" fill="#027F84"/>
<path d="M312.423 15.0233C313.504 15.0233 314.585 15.0233 315.699 15.0233C315.699 17.0423 315.699 19.0613 315.699 21.1415C317.524 21.1415 319.349 21.1415 321.23 21.1415C321.23 22.222 321.23 23.3026 321.23 24.4159C319.405 24.4159 317.58 24.4159 315.699 24.4159C315.704 26.4211 315.704 26.4211 315.71 28.4262C315.711 28.6973 315.712 28.9685 315.713 29.2397C315.713 29.2736 315.713 29.3076 315.713 29.3426C315.715 29.8892 315.716 30.4358 315.717 30.9823C315.719 31.5444 315.72 32.1065 315.722 32.6686C315.724 33.0147 315.724 33.3608 315.725 33.7068C315.726 33.9734 315.727 34.24 315.728 34.5067C315.728 34.6151 315.728 34.7236 315.728 34.832C315.719 37.1009 315.719 37.1009 316.712 39.0652C317.552 39.8421 318.798 39.7983 319.859 39.7589C320.318 39.7371 320.775 39.6825 321.23 39.6251C321.266 39.6206 321.303 39.616 321.341 39.6113C321.417 39.6017 321.494 39.5919 321.57 39.582C321.601 39.9281 321.623 40.2734 321.636 40.6206C321.637 40.669 321.639 40.7173 321.641 40.7672C321.645 40.8691 321.649 40.971 321.652 41.0729C321.658 41.225 321.664 41.3771 321.67 41.5292C321.694 42.1874 321.703 42.8442 321.698 43.5028C321.134 43.6229 320.572 43.7332 320.001 43.8152C319.928 43.8257 319.928 43.8257 319.854 43.8364C319.407 43.8988 318.965 43.9403 318.514 43.9424C318.471 43.9427 318.429 43.943 318.385 43.9433C316.462 43.954 314.192 43.902 312.679 42.5119C312.644 42.4824 312.609 42.4529 312.574 42.4225C312.093 42.0044 311.747 41.5184 311.445 40.9608C311.43 40.9337 311.415 40.9066 311.4 40.8787C310.135 38.5323 310.332 35.6415 310.333 33.0577C310.333 32.8511 310.333 32.6445 310.333 32.4379C310.333 32.4082 310.333 32.3785 310.333 32.3479C310.333 32.2875 310.333 32.2272 310.333 32.1668C310.333 31.6057 310.333 31.0445 310.333 30.4834C310.334 30.0021 310.333 29.5209 310.333 29.0396C310.333 28.4783 310.333 27.9169 310.333 27.3555C310.333 27.2958 310.333 27.236 310.333 27.1763C310.333 27.1322 310.333 27.1322 310.333 27.0873C310.333 26.8804 310.333 26.6735 310.333 26.4665C310.333 26.1891 310.333 25.9117 310.333 25.6343C310.333 25.5324 310.333 25.4304 310.333 25.3284C310.333 25.1899 310.333 25.0513 310.333 24.9127C310.333 24.8515 310.333 24.8515 310.333 24.7891C310.333 24.7338 310.333 24.7338 310.333 24.6773C310.333 24.6453 310.333 24.6134 310.333 24.5804C310.339 24.5021 310.339 24.5021 310.381 24.4159C309.174 24.4159 307.967 24.4159 306.723 24.4159C306.772 23.4214 306.772 23.4214 306.796 23.0833C306.8 23.0258 306.8 23.0258 306.804 22.9672C306.809 22.8882 306.815 22.8092 306.821 22.7303C306.829 22.6097 306.837 22.4891 306.846 22.3685C306.851 22.2908 306.857 22.2131 306.862 22.1354C306.865 22.0999 306.867 22.0644 306.87 22.0277C306.883 21.8449 306.902 21.6666 306.935 21.4861C307.093 21.4328 307.249 21.4215 307.413 21.4065C307.467 21.4015 307.467 21.4015 307.522 21.3963C307.64 21.3852 307.758 21.3743 307.876 21.3634C307.958 21.3558 308.04 21.3481 308.121 21.3404C308.337 21.3203 308.552 21.3003 308.768 21.2803C308.988 21.2599 309.208 21.2393 309.427 21.2188C309.859 21.1785 310.29 21.1384 310.722 21.0984C310.732 21.0596 310.743 21.0208 310.754 20.9808C310.797 20.8268 310.84 20.6728 310.882 20.5189C310.902 20.4473 310.922 20.3757 310.942 20.3041C311.062 19.8699 311.182 19.4357 311.302 19.0015C311.347 18.8392 311.392 18.677 311.437 18.5148C311.449 18.4743 311.46 18.4339 311.471 18.3922C311.611 17.8872 311.751 17.3821 311.89 16.877C311.945 16.6781 312 16.4792 312.055 16.2803C312.084 16.1749 312.114 16.0695 312.143 15.9641C312.182 15.8197 312.222 15.6753 312.262 15.5309C312.274 15.4889 312.285 15.4468 312.297 15.4035C312.313 15.3466 312.313 15.3466 312.329 15.2886C312.343 15.2395 312.343 15.2395 312.357 15.1893C312.381 15.1095 312.381 15.1095 312.423 15.0233Z" fill="#027F84"/>
<path d="M126.212 22.2617C126.113 22.653 125.99 23.0346 125.863 23.4171C125.841 23.482 125.82 23.5469 125.798 23.6119C125.742 23.7817 125.686 23.9514 125.63 24.1212C125.54 24.3928 125.45 24.6646 125.36 24.9364C125.329 25.0305 125.298 25.1245 125.266 25.2186C125.165 25.524 125.067 25.8298 124.978 26.1394C124.826 26.1107 124.705 26.073 124.567 26.002C124.529 25.9828 124.49 25.9635 124.451 25.9437C124.41 25.9229 124.369 25.9022 124.327 25.8808C123.265 25.3559 122.148 24.9883 120.979 24.8037C120.951 24.7992 120.923 24.7948 120.894 24.7902C119.388 24.5863 117.812 24.8098 116.556 25.7136C116.437 25.8081 116.326 25.9066 116.215 26.0101C116.192 26.0308 116.17 26.0514 116.147 26.0727C115.805 26.3951 115.527 26.7271 115.279 27.1303C115.25 27.1757 115.221 27.2211 115.192 27.2678C114.623 28.2129 114.369 29.3209 114.215 30.4048C114.207 30.4576 114.207 30.4576 114.2 30.5115C114.037 31.698 114.051 33.0112 114.215 34.1963C114.221 34.2364 114.226 34.2765 114.232 34.3178C114.472 36.0058 115.067 37.7363 116.432 38.8262C117.905 39.8967 119.684 40.0633 121.443 39.7782C122.776 39.5382 124.176 39.057 125.299 38.274C125.404 38.2033 125.404 38.2033 125.489 38.2033C125.577 38.6059 125.625 39.0124 125.675 39.4211C125.685 39.4972 125.694 39.5732 125.704 39.6493C125.723 39.8079 125.743 39.9665 125.762 40.1251C125.787 40.328 125.812 40.5309 125.837 40.7338C125.857 40.8905 125.876 41.0473 125.895 41.204C125.905 41.2788 125.914 41.3537 125.923 41.4285C125.936 41.533 125.949 41.6375 125.962 41.7421C125.968 41.788 125.968 41.788 125.973 41.8349C125.994 42.004 126.009 42.1692 125.999 42.3395C125.936 42.4069 125.936 42.4069 125.847 42.4563C125.814 42.4751 125.781 42.4939 125.747 42.5132C125.711 42.5323 125.675 42.5514 125.638 42.5711C125.583 42.6017 125.583 42.6017 125.527 42.6329C125.416 42.6943 125.304 42.7541 125.191 42.8134C125.16 42.8303 125.128 42.8471 125.096 42.8644C124.903 42.9669 124.707 43.0638 124.51 43.1581C124.466 43.1801 124.421 43.202 124.375 43.2246C123.586 43.5904 122.73 43.8121 121.873 43.9337C121.831 43.94 121.789 43.9464 121.746 43.953C119.626 44.2662 117.303 44.1455 115.279 43.4166C115.249 43.4064 115.22 43.3962 115.19 43.3857C114.747 43.2308 114.331 43.036 113.917 42.8134C113.875 42.7912 113.875 42.7912 113.832 42.7685C112.7 42.1679 111.698 41.2674 110.939 40.2283C110.899 40.1733 110.899 40.1733 110.857 40.1172C109.784 38.6114 109.202 36.8092 108.929 34.988C108.919 34.9243 108.919 34.9243 108.91 34.8593C108.788 33.9934 108.753 33.1258 108.756 32.2521C108.756 32.2023 108.756 32.1525 108.756 32.1012C108.758 31.327 108.783 30.5682 108.897 29.8016C108.904 29.7514 108.912 29.7012 108.919 29.6494C109.341 26.8261 110.627 24.2997 112.912 22.5821C113.728 21.9794 114.621 21.5135 115.576 21.1845C115.611 21.1726 115.646 21.1607 115.681 21.1484C119.021 20.019 123.205 20.386 126.212 22.2617Z" fill="#027F84"/>
<path d="M141.017 20.7106C141.062 20.718 141.106 20.7254 141.152 20.733C143.591 21.1508 145.803 22.4199 147.271 24.4591C147.307 24.5076 147.343 24.5561 147.379 24.6046C148.565 26.2238 149.181 28.1643 149.441 30.1463C149.448 30.1985 149.448 30.1985 149.455 30.2516C149.911 33.6738 149.321 37.4856 147.228 40.2714C147.079 40.4639 146.921 40.6487 146.761 40.8315C146.741 40.8537 146.722 40.8758 146.702 40.8987C144.961 42.8982 142.429 43.8549 139.849 44.0553C139.493 44.0734 139.137 44.0735 138.781 44.0737C138.738 44.0738 138.696 44.0738 138.652 44.0738C135.875 44.0708 133.338 43.2221 131.317 41.2624C131.285 41.2318 131.254 41.2013 131.221 41.1698C130.991 40.9448 130.791 40.6981 130.594 40.4438C130.575 40.4191 130.555 40.3945 130.536 40.3691C129.203 38.6601 128.49 36.598 128.212 34.4549C128.207 34.419 128.202 34.3831 128.197 34.3461C127.771 31.0141 128.271 27.1976 130.318 24.4644C130.519 24.2008 130.732 23.9516 130.958 23.7099C131.033 23.6288 131.103 23.548 131.172 23.4624C131.306 23.3008 131.457 23.1732 131.615 23.0372C131.674 22.9846 131.674 22.9846 131.733 22.9309C134.179 20.743 137.877 20.1822 141.017 20.7106ZM135.058 26.2336C134.038 27.4356 133.642 29.0816 133.487 30.6203C133.483 30.6576 133.479 30.695 133.475 30.7334C133.427 31.2479 133.434 31.7655 133.434 32.2818C133.434 32.3328 133.434 32.3839 133.434 32.4365C133.435 33.5545 133.522 34.6151 133.785 35.7044C133.793 35.7377 133.801 35.771 133.809 35.8054C134.154 37.2005 134.905 38.5053 136.125 39.2805C136.926 39.7613 137.811 39.9517 138.733 39.9436C138.826 39.9429 138.92 39.9436 139.013 39.9444C139.583 39.9453 140.148 39.8715 140.687 39.679C140.735 39.6624 140.735 39.6624 140.783 39.6455C142.054 39.1852 142.865 38.1905 143.43 36.9921C144.072 35.5381 144.218 33.8996 144.216 32.3249C144.216 32.2714 144.216 32.2714 144.216 32.2168C144.211 29.9358 143.858 27.5146 142.204 25.8326C141.234 24.912 139.868 24.6314 138.58 24.6622C137.204 24.7188 136.009 25.2059 135.058 26.2336Z" fill="#027F84"/>
<path d="M340.259 22.7973C340.695 23.2017 341.093 23.6276 341.438 24.1143C341.458 24.1427 341.478 24.171 341.499 24.2002C343.47 26.9968 343.512 30.1944 343.437 33.507C336.151 33.5283 336.151 33.5283 328.717 33.55C328.772 34.3791 328.772 34.3791 328.901 35.19C328.915 35.2567 328.915 35.2567 328.929 35.3247C329.153 36.3693 329.549 37.3499 330.249 38.1602C330.275 38.1928 330.301 38.2254 330.328 38.259C331.233 39.3635 332.699 39.8483 334.063 39.9912C336.581 40.2149 339.179 39.5423 341.386 38.3305C341.412 38.3164 341.438 38.3022 341.464 38.2876C341.534 38.2491 341.603 38.2101 341.673 38.171C341.778 38.1171 341.778 38.1171 341.863 38.1171C341.958 38.5972 342.052 39.0773 342.146 39.5575C342.19 39.7805 342.234 40.0034 342.278 40.2264C342.32 40.4414 342.362 40.6566 342.404 40.8717C342.42 40.9538 342.436 41.0359 342.453 41.118C342.475 41.2329 342.498 41.3478 342.52 41.4628C342.53 41.5138 342.53 41.5138 342.541 41.5659C342.569 41.7129 342.587 41.8443 342.587 41.9948C340.953 42.9699 339.215 43.6084 337.338 43.8986C337.295 43.9053 337.253 43.912 337.209 43.9189C336.372 44.0408 335.534 44.0795 334.689 44.0764C334.62 44.0762 334.62 44.0762 334.549 44.0761C331.367 44.0659 328.455 43.1541 326.17 40.85C325.866 40.537 325.608 40.197 325.357 39.8405C325.338 39.8149 325.32 39.7892 325.301 39.7628C323.412 37.1328 323.006 33.4331 323.4 30.2756C323.405 30.2312 323.411 30.1869 323.416 30.1412C323.59 28.787 323.91 27.4558 324.506 26.2255C324.525 26.1865 324.543 26.1474 324.563 26.1072C324.915 25.3869 325.313 24.7294 325.825 24.1143C325.844 24.0911 325.863 24.0679 325.883 24.044C326.283 23.5595 326.697 23.1302 327.186 22.7356C327.219 22.7078 327.251 22.6799 327.285 22.6513C328.553 21.5803 330.164 20.9739 331.781 20.7106C331.84 20.7008 331.84 20.7008 331.902 20.6909C334.811 20.2422 338.016 20.7627 340.259 22.7973ZM330.674 25.5792C330.641 25.6066 330.607 25.6339 330.572 25.662C329.431 26.6191 328.969 28.229 328.812 29.6634C328.803 29.7954 328.803 29.9279 328.803 30.0601C331.975 30.0601 335.148 30.0601 338.417 30.0601C338.421 29.4437 338.421 29.4437 338.367 28.8376C338.361 28.796 338.356 28.7545 338.35 28.7117C338.202 27.6848 337.865 26.671 337.184 25.8808C337.161 25.8519 337.139 25.823 337.115 25.7931C336.487 25.005 335.462 24.585 334.492 24.4695C333.085 24.3426 331.765 24.6523 330.674 25.5792Z" fill="#027F84"/>
<path d="M190.279 22.7929C191.539 23.9557 192.396 25.4095 192.92 27.0442C192.93 27.0744 192.94 27.1045 192.95 27.1356C193.618 29.1841 193.473 31.3848 193.473 33.507C188.601 33.507 183.73 33.507 178.71 33.507C178.943 35.5093 179.281 37.4759 180.915 38.7957C181.198 39.0178 181.498 39.1994 181.816 39.3666C181.853 39.3864 181.89 39.4062 181.928 39.4265C184.194 40.558 187.16 40.0058 189.437 39.2266C190.177 38.9649 190.885 38.628 191.571 38.2425C191.65 38.1983 191.732 38.1573 191.814 38.1172C191.842 38.1314 191.87 38.1456 191.899 38.1602C191.929 38.2748 191.953 38.387 191.975 38.5032C191.982 38.5392 191.989 38.5751 191.996 38.6121C192.02 38.7315 192.042 38.851 192.065 38.9704C192.081 39.0532 192.097 39.1359 192.114 39.2186C192.147 39.3922 192.181 39.5658 192.214 39.7395C192.257 39.9623 192.3 40.1851 192.343 40.4079C192.377 40.5787 192.41 40.7497 192.443 40.9206C192.459 41.0027 192.475 41.0849 192.491 41.167C192.513 41.2818 192.535 41.3966 192.557 41.5115C192.564 41.5456 192.57 41.5797 192.577 41.6148C192.602 41.7437 192.622 41.8633 192.622 41.9948C191.203 42.8357 189.729 43.4391 188.112 43.7614C188.071 43.7697 188.029 43.778 187.987 43.7865C187.689 43.8445 187.391 43.8919 187.091 43.9337C187.023 43.9435 187.023 43.9435 186.953 43.9534C186.198 44.0559 185.448 44.0754 184.688 44.0764C184.643 44.0766 184.599 44.0767 184.553 44.0769C183.744 44.0784 182.937 44.0363 182.138 43.9014C182.094 43.8941 182.051 43.8868 182.006 43.8793C180.065 43.541 178.275 42.7579 176.796 41.4347C176.774 41.4151 176.752 41.3955 176.729 41.3753C174.892 39.7345 173.891 37.3887 173.512 34.9746C173.506 34.9326 173.499 34.8906 173.492 34.8473C173.369 34.0069 173.334 33.1709 173.337 32.3222C173.337 32.2711 173.337 32.22 173.337 32.1674C173.347 28.8283 174.273 25.6114 176.653 23.2116C176.911 22.9581 177.188 22.7365 177.477 22.5202C177.524 22.4836 177.572 22.4469 177.62 22.4103C179.019 21.3502 180.734 20.819 182.454 20.6244C182.491 20.6203 182.527 20.6162 182.565 20.612C185.31 20.3412 188.181 20.8961 190.279 22.7929ZM180.219 26.0391C179.458 26.9185 179.097 28.0524 178.907 29.1877C178.9 29.2302 178.893 29.2728 178.886 29.3166C178.845 29.5736 178.838 29.793 178.838 30.0602C182.011 30.0602 185.184 30.0602 188.453 30.0602C188.453 28.4647 188.138 26.8179 187.001 25.6358C186.106 24.7438 184.962 24.4472 183.733 24.4484C182.363 24.4626 181.164 25.0283 180.219 26.0391Z" fill="#027F84"/>
<path d="M96.6899 20.5679C96.7276 20.5679 96.7652 20.568 96.804 20.5681C97.7944 20.5716 98.746 20.6803 99.7078 20.926C99.7401 20.9341 99.7724 20.9422 99.8057 20.9505C102.02 21.5172 103.784 23.064 104.941 25.0191C105.8 26.484 106.215 28.2001 106.345 29.8878C106.349 29.9431 106.354 29.9983 106.359 30.0553C106.442 31.2018 106.375 32.3617 106.345 33.507C101.487 33.507 96.6294 33.507 91.6246 33.507C91.7602 35.2233 92.0336 37.0132 93.2838 38.2895C93.318 38.3259 93.3523 38.3623 93.3875 38.3999C93.4235 38.4345 93.4595 38.4692 93.4965 38.5049C93.5241 38.5325 93.5516 38.5602 93.58 38.5887C94.8243 39.7902 96.5769 40.0537 98.2271 40.0186C100.47 39.9398 102.535 39.2491 104.528 38.24C104.573 38.2169 104.619 38.1938 104.666 38.1701C104.7 38.1526 104.735 38.1351 104.77 38.1171C104.865 38.5909 104.959 39.0646 105.053 39.5385C105.097 39.7585 105.141 39.9785 105.185 40.1984C105.227 40.4107 105.269 40.623 105.311 40.8354C105.327 40.9164 105.344 40.9974 105.36 41.0784C105.382 41.1918 105.405 41.3053 105.427 41.4187C105.437 41.469 105.437 41.469 105.448 41.5202C105.512 41.8507 105.512 41.8507 105.494 41.9948C105.393 42.0747 105.304 42.133 105.193 42.1941C105.161 42.2124 105.129 42.2307 105.096 42.2496C103.588 43.0931 101.946 43.6357 100.245 43.8987C100.202 43.9053 100.16 43.912 100.116 43.9189C99.2796 44.0409 98.4407 44.0794 97.5966 44.0764C97.5505 44.0763 97.5044 44.0762 97.4569 44.0761C94.7526 44.0684 91.9714 43.4397 89.8804 41.607C89.8466 41.5777 89.8129 41.5483 89.7782 41.518C89.2637 41.0594 88.7971 40.5725 88.3914 40.0129C88.3438 39.9482 88.3438 39.9482 88.2953 39.8823C86.7451 37.6989 86.2129 34.9949 86.211 32.3491C86.211 32.3119 86.211 32.2748 86.2109 32.2366C86.2146 29.1851 86.9594 26.0325 89.0596 23.7473C89.1428 23.6561 89.222 23.5632 89.3007 23.4681C91.1032 21.3843 94.0478 20.5563 96.6899 20.5679ZM93.0575 26.0989C92.1261 27.1866 91.8082 28.6644 91.7097 30.0601C94.8826 30.0601 98.0555 30.0601 101.324 30.0601C101.329 29.4206 101.329 29.4206 101.274 28.7918C101.268 28.7503 101.263 28.7087 101.257 28.666C101.066 27.3603 100.55 26.1248 99.5084 25.2884C97.501 23.8355 94.679 24.2956 93.0575 26.0989Z" fill="#027F84"/>
<path d="M272.393 20.5706C272.434 20.5706 272.476 20.5705 272.518 20.5705C274.981 20.5732 277.431 21.2042 279.325 22.8649C279.377 22.9105 279.377 22.9105 279.43 22.9569C279.873 23.3532 280.279 23.7714 280.644 24.2436C280.677 24.2855 280.711 24.3274 280.745 24.3705C281.936 25.8836 282.612 27.7736 282.906 29.6697C282.913 29.7117 282.92 29.7536 282.926 29.7969C283.049 30.63 283.085 31.4592 283.082 32.3006C283.082 32.3756 283.082 32.3756 283.082 32.4521C283.08 33.2275 283.058 33.9888 282.941 34.7565C282.934 34.8051 282.926 34.8537 282.919 34.9038C282.61 36.8844 281.923 38.7749 280.686 40.3576C280.66 40.3927 280.634 40.4278 280.607 40.464C280.081 41.1526 279.434 41.7569 278.729 42.2533C278.705 42.2707 278.681 42.288 278.656 42.3058C277.871 42.8632 277 43.2498 276.092 43.5459C276.058 43.5571 276.024 43.5682 275.99 43.5797C275.579 43.713 275.161 43.7982 274.738 43.8771C274.692 43.8859 274.645 43.8946 274.598 43.9036C273.828 44.04 273.059 44.0794 272.279 44.0764C272.236 44.0763 272.193 44.0762 272.15 44.0762C271.471 44.0741 270.806 44.0473 270.136 43.9337C270.073 43.9236 270.073 43.9236 270.01 43.9134C268.334 43.6323 266.69 42.925 265.413 41.7794C265.362 41.7348 265.362 41.7348 265.31 41.6894C264.81 41.2436 264.363 40.7708 263.967 40.2283C263.949 40.2036 263.93 40.1789 263.911 40.1534C263.634 39.7769 263.388 39.3866 263.158 38.9789C263.143 38.9523 263.128 38.9258 263.112 38.8984C261.316 35.7606 261.25 31.4907 262.137 28.0626C262.841 25.4926 264.4 23.2671 266.69 21.917C266.912 21.7922 267.139 21.68 267.37 21.5723C267.418 21.5499 267.465 21.5276 267.514 21.5045C268.596 21.0132 269.767 20.7456 270.944 20.6244C270.983 20.6204 271.022 20.6163 271.062 20.6121C271.505 20.5718 271.949 20.5709 272.393 20.5706ZM268.604 26.2282C267.374 27.6321 267.039 29.6796 266.963 31.4901C266.962 31.5294 266.96 31.5688 266.958 31.6093C266.933 32.1981 266.941 32.7841 266.977 33.3724C266.979 33.4029 266.98 33.4334 266.982 33.4648C267.104 35.4264 267.59 37.5085 269.087 38.875C269.669 39.3774 270.37 39.681 271.114 39.8406C271.149 39.8482 271.185 39.8558 271.221 39.8637C271.567 39.9309 271.909 39.9414 272.26 39.9403C272.355 39.9402 272.45 39.9412 272.546 39.9423C273.116 39.9449 273.681 39.8744 274.222 39.6844C274.254 39.6735 274.285 39.6627 274.317 39.6515C274.856 39.4552 275.328 39.1533 275.751 38.7634C275.795 38.7247 275.795 38.7247 275.839 38.6852C276.537 38.0257 276.948 37.1246 277.24 36.2214C277.25 36.1914 277.26 36.1614 277.27 36.1305C278.144 33.4169 278.034 29.7926 276.775 27.2137C276.243 26.1633 275.368 25.3383 274.26 24.9599C272.26 24.3124 270.077 24.6733 268.604 26.2282Z" fill="#027F84"/>
<path d="M208.493 21.0015C208.531 21.0011 208.569 21.0007 208.609 21.0002C208.797 21.0011 208.984 21.0089 209.171 21.0316C209.807 21.1085 210.44 21.1134 211.08 21.1162C211.196 21.117 211.312 21.1179 211.428 21.1188C211.7 21.1208 211.972 21.1224 212.244 21.1238C212.554 21.1255 212.864 21.1276 213.174 21.1297C213.811 21.1342 214.448 21.138 215.085 21.1415C215.118 21.2222 215.152 21.3029 215.185 21.3836C215.204 21.4285 215.222 21.4735 215.241 21.5198C215.332 21.7443 215.413 21.9722 215.493 22.2006C215.521 22.2791 215.549 22.3575 215.577 22.4359C215.606 22.5189 215.635 22.602 215.665 22.685C215.759 22.9507 215.853 23.2162 215.947 23.4818C215.98 23.5729 216.012 23.6641 216.044 23.7552C216.248 24.3279 216.453 24.8998 216.659 25.4716C216.958 26.304 217.256 27.137 217.552 27.9705C217.867 28.8554 218.183 29.7398 218.501 30.6237C218.774 31.3834 219.046 32.1435 219.318 32.9038C219.603 33.7015 219.888 34.499 220.174 35.2963C220.211 35.3979 220.247 35.4996 220.284 35.6013C220.477 36.1394 220.67 36.677 220.871 37.2124C220.968 36.958 221.051 36.7021 221.128 36.4409C221.154 36.3542 221.18 36.2676 221.206 36.181C221.22 36.1351 221.233 36.0892 221.248 36.042C221.642 34.7265 222.065 33.4208 222.492 32.116C222.552 31.9318 222.612 31.7475 222.672 31.5632C222.999 30.5625 223.33 29.5638 223.675 28.5695C223.917 27.8713 224.154 27.1714 224.391 26.4714C224.736 25.4496 225.084 24.4285 225.437 23.4092C225.535 23.1259 225.632 22.8425 225.729 22.5591C225.774 22.4293 225.819 22.2995 225.863 22.1697C225.892 22.0863 225.921 22.003 225.949 21.9196C225.988 21.8051 226.028 21.6907 226.067 21.5762C226.085 21.5249 226.085 21.5249 226.103 21.4726C226.184 21.2375 226.184 21.2375 226.231 21.1415C228.112 21.1415 229.994 21.1415 231.932 21.1415C231.788 21.6262 231.788 21.6262 231.703 21.8545C231.674 21.9318 231.674 21.9318 231.645 22.0106C231.624 22.066 231.603 22.1215 231.583 22.1769C231.561 22.236 231.539 22.2952 231.517 22.3544C231.457 22.5131 231.398 22.6718 231.339 22.8305C231.276 22.9977 231.214 23.165 231.151 23.3323C231.001 23.7367 230.849 24.141 230.698 24.5452C230.687 24.5751 230.676 24.6049 230.664 24.6357C230.476 25.1387 230.288 25.6417 230.099 26.1446C229.84 26.8364 229.581 27.5286 229.323 28.221C229.297 28.2921 229.297 28.2921 229.27 28.3646C229.183 28.5974 229.097 28.8302 229.01 29.063C228.858 29.4699 228.707 29.8768 228.555 30.2837C228.541 30.3223 228.526 30.361 228.511 30.4008C228.231 31.1524 227.949 31.9035 227.668 32.6547C227.369 33.452 227.071 34.2497 226.774 35.0477C226.475 35.8512 226.175 36.6541 225.874 37.4569C225.595 38.2009 225.317 38.9452 225.04 39.6898C224.701 40.6001 224.361 41.5099 224.02 42.4195C223.839 42.9025 223.658 43.3856 223.478 43.8692C221.607 48.9049 221.607 48.9049 219.977 50.6119C219.957 50.6334 219.937 50.6549 219.916 50.677C218.352 52.3457 216.091 53.0493 213.864 53.1156C213.699 53.1182 213.533 53.1192 213.367 53.119C213.337 53.119 213.308 53.119 213.277 53.119C212.813 53.1184 212.351 53.1025 211.889 53.0732C211.835 53.0698 211.781 53.0664 211.725 53.063C211.353 53.0372 210.986 52.9924 210.618 52.9386C210.552 52.1907 210.5 51.4421 210.454 50.6928C210.444 50.5409 210.434 50.3891 210.425 50.2372C210.417 50.1179 210.41 49.9986 210.402 49.8793C210.397 49.7966 210.392 49.7139 210.386 49.6311C210.367 49.3257 210.358 49.0223 210.362 48.7162C210.401 48.7188 210.439 48.7214 210.478 48.7241C213.338 48.9485 213.338 48.9485 215.936 47.8976C215.964 47.8774 215.993 47.8572 216.023 47.8365C216.973 47.093 217.425 45.6968 217.8 44.6015C217.832 44.5085 217.864 44.4155 217.896 44.3225C218.004 44.0105 218.004 44.0105 218.11 43.6976C218.135 43.6263 218.161 43.5555 218.19 43.4855C218.266 43.2874 218.293 43.1642 218.21 42.9571C218.198 42.9296 218.185 42.9021 218.172 42.8737C218.154 42.8284 218.154 42.8284 218.134 42.7821C218.093 42.6825 218.05 42.5838 218.007 42.4849C217.977 42.4141 217.948 42.3432 217.918 42.2723C217.856 42.1241 217.794 41.9763 217.731 41.8285C217.599 41.517 217.473 41.2028 217.346 40.8887C217.276 40.7137 217.205 40.539 217.134 40.3642C216.947 39.9026 216.76 39.4407 216.574 38.9789C216.333 38.3827 216.092 37.7867 215.851 37.1908C215.593 36.5548 215.336 35.9185 215.079 35.2821C214.854 34.7261 214.629 34.1704 214.404 33.6147C214.146 32.9787 213.889 32.3424 213.632 31.706C213.408 31.1501 213.183 30.5943 212.958 30.0386C212.718 29.4473 212.479 28.8557 212.24 28.264C212.216 28.2049 212.216 28.2049 212.191 28.1446C212.062 27.8237 211.932 27.5029 211.803 27.182C211.69 26.9018 211.576 26.6216 211.463 26.3414C211.439 26.2825 211.439 26.2825 211.415 26.2224C211.202 25.6947 210.989 25.1672 210.775 24.6398C210.754 24.5877 210.754 24.5877 210.732 24.5345C210.718 24.5002 210.704 24.466 210.69 24.4308C210.409 23.7372 210.13 23.0427 209.852 22.3479C209.851 22.3724 209.851 22.3969 209.851 22.4221C209.81 24.6913 209.81 24.6913 209.767 25.6224C209.725 25.6194 209.684 25.6164 209.641 25.6133C209.173 25.5815 208.706 25.5699 208.236 25.5689C208.116 25.5685 207.996 25.5672 207.877 25.5658C206.319 25.5566 204.854 25.9596 203.726 27.0873C202.681 28.1437 202.323 29.7844 202.315 31.2318C202.315 31.2802 202.315 31.3286 202.315 31.3785C202.315 31.4312 202.315 31.4838 202.314 31.5381C202.314 31.6829 202.314 31.8277 202.313 31.9726C202.313 32.1292 202.312 32.2859 202.312 32.4426C202.311 32.7136 202.31 32.9846 202.309 33.2557C202.308 33.6475 202.307 34.0393 202.306 34.4312C202.304 35.067 202.302 35.7028 202.3 36.3387C202.299 36.9561 202.297 37.5735 202.295 38.1909C202.295 38.229 202.295 38.2671 202.295 38.3064C202.294 38.4975 202.294 38.6887 202.293 38.8798C202.288 40.4639 202.284 42.048 202.279 43.6321C200.51 43.6321 198.741 43.6321 196.919 43.6321C196.919 36.2102 196.919 28.7883 196.919 21.1415C198.407 21.1415 199.895 21.1415 201.428 21.1415C201.572 21.7231 201.572 21.7231 201.621 21.9703C201.632 22.0255 201.643 22.0807 201.655 22.1375C201.666 22.1957 201.678 22.254 201.689 22.3122C201.702 22.3733 201.714 22.4344 201.726 22.4954C201.758 22.6544 201.79 22.8133 201.821 22.9723C201.854 23.1352 201.886 23.2981 201.919 23.461C201.982 23.7793 202.046 24.0976 202.109 24.416C202.201 24.3 202.292 24.1836 202.382 24.0657C202.644 23.7209 202.919 23.3956 203.215 23.0803C203.245 23.0473 203.275 23.0142 203.306 22.9802C203.776 22.4769 204.355 22.1027 204.959 21.7878C204.985 21.7741 205.011 21.7604 205.038 21.7462C206.101 21.1871 207.307 21.0088 208.493 21.0015Z" fill="#027F84"/>
<path d="M150.036 21.1415C151.904 21.1415 153.771 21.1415 155.695 21.1415C155.825 21.4588 155.951 21.771 156.062 22.0947C156.076 22.1347 156.09 22.1747 156.104 22.2159C156.134 22.3014 156.164 22.387 156.193 22.4727C156.274 22.7046 156.354 22.9364 156.435 23.1682C156.452 23.2154 156.468 23.2626 156.485 23.3113C156.641 23.7577 156.8 24.2028 156.96 24.6476C156.974 24.6854 156.987 24.7233 157.002 24.7623C157.059 24.9207 157.116 25.0791 157.173 25.2375C157.365 25.7721 157.556 26.3072 157.747 26.8422C157.991 27.5254 158.236 28.2084 158.481 28.891C158.673 29.4242 158.865 29.9575 159.055 30.491C159.07 30.5324 159.085 30.5739 159.1 30.6166C159.619 32.0673 160.107 33.528 160.592 34.9904C160.65 35.1643 160.708 35.3382 160.766 35.512C161.072 36.4343 161.372 37.358 161.651 38.2895C161.806 37.7521 161.952 37.2124 162.094 36.6711C162.111 36.6063 162.128 36.5416 162.145 36.4768C162.215 36.2103 162.285 35.9438 162.354 35.6772C162.581 34.8031 162.823 33.9367 163.097 33.0761C163.112 33.0278 163.128 32.9795 163.144 32.9298C163.257 32.5742 163.372 32.2192 163.488 31.8644C163.526 31.7467 163.564 31.629 163.603 31.5114C163.686 31.2537 163.77 30.996 163.854 30.7384C163.948 30.4487 164.042 30.1589 164.136 29.8692C164.719 28.0752 165.303 26.2819 165.892 24.49C165.931 24.3726 165.969 24.2552 166.008 24.1378C166.263 23.3606 166.52 22.5846 166.789 21.8122C166.8 21.7802 166.811 21.7482 166.822 21.7152C166.853 21.6263 166.884 21.5375 166.915 21.4487C166.933 21.3985 166.95 21.3483 166.968 21.2966C167.011 21.1846 167.011 21.1846 167.054 21.1415C167.126 21.1373 167.199 21.1362 167.272 21.1363C167.319 21.1362 167.367 21.1362 167.415 21.1361C167.468 21.1363 167.52 21.1364 167.574 21.1366C167.629 21.1366 167.683 21.1366 167.74 21.1366C167.891 21.1365 168.041 21.1368 168.192 21.1371C168.349 21.1374 168.506 21.1374 168.664 21.1374C168.962 21.1376 169.26 21.1379 169.558 21.1384C169.897 21.1388 170.236 21.1391 170.575 21.1393C171.273 21.1398 171.971 21.1405 172.669 21.1415C172.649 21.2103 172.629 21.2791 172.609 21.3479C172.597 21.3862 172.586 21.4246 172.574 21.464C172.535 21.5939 172.49 21.7203 172.441 21.847C172.412 21.9246 172.412 21.9246 172.381 22.0038C172.371 22.0315 172.36 22.0592 172.349 22.0877C172.288 22.2481 172.227 22.4086 172.166 22.5692C172.152 22.6051 172.139 22.6411 172.125 22.6782C171.928 23.1966 171.734 23.7161 171.539 24.2355C171.519 24.2896 171.499 24.3437 171.478 24.3978C171.176 25.2043 170.875 26.0111 170.575 26.8182C170.276 27.6218 169.975 28.4248 169.674 29.2276C169.396 29.9716 169.118 30.7158 168.84 31.4604C168.524 32.3106 168.206 33.1603 167.888 34.0097C167.606 34.761 167.325 35.5126 167.046 36.2645C166.756 37.0417 166.466 37.8185 166.174 38.5949C165.878 39.3831 165.584 40.1719 165.29 40.9611C164.959 41.8524 164.623 42.742 164.288 43.6321C162.505 43.6321 160.722 43.6321 158.885 43.6321C158.694 43.2445 158.694 43.2445 158.639 43.0999C158.626 43.0664 158.613 43.0328 158.6 42.9982C158.586 42.9618 158.572 42.9255 158.558 42.888C158.525 42.8031 158.493 42.7182 158.46 42.6333C158.443 42.5873 158.425 42.5412 158.407 42.4937C158.305 42.2288 158.203 41.9643 158.101 41.6998C158.089 41.6698 158.077 41.6397 158.065 41.6087C157.824 40.9858 157.578 40.3647 157.331 39.7438C157.302 39.6688 157.302 39.6688 157.271 39.5923C157.069 39.0833 156.867 38.5745 156.664 38.0657C156.309 37.174 155.954 36.2825 155.612 35.3857C155.299 34.564 154.974 33.7467 154.65 32.9291C154.453 32.432 154.257 31.9349 154.06 31.4377C154.04 31.3864 154.02 31.3351 153.999 31.2823C153.559 30.1695 153.121 29.0559 152.684 27.9422C152.03 26.279 151.376 24.6164 150.719 22.9547C150.67 22.8304 150.621 22.706 150.571 22.5817C150.47 22.3241 150.368 22.0666 150.265 21.8095C150.24 21.7479 150.24 21.7479 150.215 21.6851C150.186 21.612 150.157 21.5388 150.127 21.4658C150.036 21.2373 150.036 21.2373 150.036 21.1415Z" fill="#027F84"/>
<path d="M285.962 21.1415C287.73 21.1415 289.499 21.1415 291.322 21.1415C291.323 21.7981 291.323 21.7981 291.325 22.4679C291.327 23.8711 291.33 25.2742 291.334 26.6774C291.334 26.8957 291.335 27.1139 291.335 27.3321C291.336 27.3756 291.336 27.419 291.336 27.4638C291.337 28.1657 291.339 28.8676 291.34 29.5695C291.342 30.2906 291.343 31.0117 291.345 31.7328C291.346 32.1772 291.347 32.6216 291.348 33.066C291.348 33.3714 291.349 33.6768 291.35 33.9822C291.351 34.1579 291.351 34.3337 291.351 34.5095C291.34 35.8258 291.34 35.8258 291.545 37.1208C291.555 37.1579 291.564 37.195 291.573 37.2332C291.785 38.0593 292.158 38.8359 292.901 39.2959C294.188 40.0447 295.874 40.1104 297.292 39.7531C298.061 39.5408 298.762 39.1249 299.171 38.4125C299.192 38.3719 299.213 38.3313 299.235 38.2895C299.257 38.2476 299.279 38.2056 299.302 38.1624C299.859 37.0274 299.85 35.7447 299.849 34.5059C299.849 34.3259 299.85 34.1458 299.85 33.9658C299.851 33.6552 299.852 33.3445 299.852 33.0339C299.852 32.5848 299.853 32.1357 299.854 31.6867C299.856 30.9577 299.857 30.2288 299.858 29.4999C299.859 28.7925 299.86 28.0852 299.862 27.3779C299.862 27.3341 299.862 27.2904 299.862 27.2454C299.863 27.0259 299.863 26.8065 299.864 26.5871C299.868 24.7719 299.871 22.9567 299.873 21.1415C301.642 21.1415 303.411 21.1415 305.234 21.1415C305.235 22.9648 305.235 24.7882 305.236 26.6116C305.236 26.8272 305.236 27.0428 305.236 27.2585C305.236 27.3229 305.236 27.3229 305.236 27.3886C305.236 28.0821 305.236 28.7757 305.237 29.4692C305.237 30.1818 305.238 30.8943 305.238 31.6069C305.238 32.0459 305.238 32.485 305.238 32.9241C305.238 33.2259 305.238 33.5277 305.238 33.8294C305.238 34.0031 305.238 34.1768 305.239 34.3504C305.241 36.2394 305.241 36.2394 305.138 36.9512C305.132 36.9897 305.127 37.0283 305.121 37.0681C304.972 38.0705 304.689 38.9917 304.213 39.8837C304.189 39.9292 304.165 39.9747 304.14 40.0217C303.145 41.8282 301.281 43.0053 299.365 43.5809C296.239 44.4756 292.634 44.2916 289.758 42.7016C289.518 42.5656 289.29 42.417 289.067 42.2534C289.023 42.2212 288.979 42.189 288.934 42.1559C288.408 41.7622 287.929 41.3193 287.536 40.7885C287.485 40.7217 287.485 40.7217 287.433 40.6536C286.313 39.155 285.952 37.2534 285.956 35.4106C285.956 35.3486 285.956 35.2865 285.956 35.2245C285.956 35.0559 285.956 34.8873 285.957 34.7187C285.957 34.5362 285.957 34.3537 285.957 34.1712C285.957 33.8556 285.957 33.54 285.957 33.2245C285.957 32.7682 285.958 32.3119 285.958 31.8556C285.958 31.1152 285.958 30.3748 285.958 29.6343C285.959 28.9154 285.959 28.1965 285.959 27.4775C285.959 27.4332 285.959 27.3888 285.959 27.3431C285.959 27.1205 285.959 26.8979 285.959 26.6753C285.96 24.8307 285.961 22.9861 285.962 21.1415Z" fill="#027F84"/>
</svg>
