<svg width="43" height="43" viewBox="0 0 43 43" fill="none" xmlns="http://www.w3.org/2000/svg">
<path d="M33.54 7.16663H9.62124C9.31295 7.15219 9.00482 7.19869 8.71451 7.30348C8.42421 7.40828 8.15743 7.56929 7.92942 7.77731C7.70143 7.98534 7.51669 8.23629 7.38581 8.51579C7.25493 8.79531 7.18045 9.09789 7.16666 9.40622V33.3788C7.18472 34.0239 7.44913 34.638 7.90559 35.0943C8.36206 35.5508 8.97595 35.8153 9.62124 35.8334H33.54C34.1673 35.8054 34.7587 35.5327 35.1874 35.0739C35.6162 34.615 35.848 34.0066 35.8333 33.3788V9.40622C35.8385 9.10611 35.7823 8.80814 35.6681 8.53054C35.554 8.25296 35.3843 8.0016 35.1695 7.79189C34.9549 7.58219 34.6996 7.41858 34.4193 7.31106C34.1391 7.20354 33.8399 7.1544 33.54 7.16663ZM16.125 31.0675H11.9504V18.2929H16.125V31.0675ZM14.1362 16.3579C13.8449 16.368 13.5547 16.3178 13.2837 16.2104C13.0127 16.1031 12.7669 15.9408 12.5616 15.7338C12.3563 15.5269 12.1961 15.2797 12.0909 15.0079C11.9857 14.736 11.9379 14.4454 11.9504 14.1541C11.9375 13.8598 11.9863 13.566 12.0937 13.2916C12.201 13.0172 12.3645 12.7682 12.5737 12.5607C12.7829 12.3532 13.0331 12.1917 13.3084 12.0866C13.5836 11.9815 13.8778 11.9351 14.1721 11.9504C14.4634 11.9402 14.7536 11.9904 15.0246 12.0978C15.2956 12.2052 15.5415 12.3675 15.7467 12.5744C15.952 12.7814 16.1123 13.0286 16.2174 13.3004C16.3226 13.5723 16.3704 13.8629 16.3579 14.1541C16.3708 14.4485 16.322 14.7423 16.2147 15.0167C16.1073 15.2911 15.9438 15.54 15.7346 15.7475C15.5254 15.955 15.2752 16.1165 14.9999 16.2216C14.7247 16.3267 14.4305 16.3731 14.1362 16.3579ZM31.0675 31.0675H26.875V24.08C26.875 22.4138 26.2837 21.2671 24.7967 21.2671C24.3348 21.271 23.8852 21.4178 23.5101 21.6872C23.1347 21.9567 22.852 22.3357 22.7004 22.7721C22.5839 23.0993 22.5352 23.4467 22.5571 23.7934V31.0675H18.4362V18.2929H22.5571V20.0846C22.9235 19.4115 23.4687 18.8528 24.1327 18.4701C24.7967 18.0876 25.5535 17.896 26.3196 17.9166C29.025 17.9166 31.0675 19.7084 31.0675 23.5246V31.0675Z" fill="#2C2C2C"/>
</svg>
